<svg xmlns="http://www.w3.org/2000/svg" viewBox="0 0 100 100"><defs><style>.cls-1{fill:#fff;}.cls-2{fill:#ff7bb7;}.cls-3{fill:#ff0b6d;}</style></defs><g id="레이어_2" data-name="레이어 2"><g id="레이어_12" data-name="레이어 12"><circle class="cls-1" cx="50" cy="50" r="50"/><path class="cls-2" d="M20.86,51.81a30,30,0,0,0,5.61,9.38L46,72.13l20.48-7.32,8.76-5.69s2.38-2.58,4.24-8.49l-19-15.08L39.15,39.88H27.27Z"/><path class="cls-3" d="M50,35c-.13-.21-.21-.36-.3-.49a15.86,15.86,0,0,0-3.15-3.86,16.11,16.11,0,0,0-23.06,1.44,17,17,0,0,0-4,14.18,24.54,24.54,0,0,0,1.22,4.54c1,2.73.76,3.42,1.74,3.42q6.22,0,12.44,0a.81.81,0,0,0,.71-.42c.9-1.65,1.82-3.29,2.71-4.94a1.81,1.81,0,0,1,1.61-1.07,1.68,1.68,0,0,1,1.54,1c.57,1.05,1.16,2.09,1.74,3.13L47,58.68c.1-.16.19-.26.25-.38q4.23-8.91,8.45-17.83a1.69,1.69,0,0,1,3.23.12C60.46,45,62,49.32,63.61,53.7c.37,1,1.1.34,7.2-1a9.47,9.47,0,0,1,6.5,1.36.72.72,0,0,0,1.06-.38c.57-1.72,1.26-3.4,1.7-5.14A18.17,18.17,0,0,0,79.56,37a16.73,16.73,0,0,0-8-8.82,15.57,15.57,0,0,0-8.2-1.7,16.28,16.28,0,0,0-7.42,2.31A16.53,16.53,0,0,0,50,35ZM24.83,59.12c.11.17.14.24.19.3a78.56,78.56,0,0,0,11.2,11.64,156.69,156.69,0,0,0,12.5,9.73,2.24,2.24,0,0,0,2.63-.05c3.1-2.35,6.23-4.66,9.28-7.08A86.57,86.57,0,0,0,73.56,61.2c.53-.65,1-1.32,1.64-2.08H61.68a1.63,1.63,0,0,1-1.84-1.28C58.9,55.25,58,52.65,57,50.06c0-.11-.11-.22-.19-.39l-1.17,2.45q-3.44,7.23-6.85,14.45a1.67,1.67,0,0,1-1.54,1.05,1.64,1.64,0,0,1-1.54-.94c-1.21-2.2-2.44-4.38-3.67-6.57-.71-1.28-1.43-2.55-2.17-3.86-.35.62-.69,1.18-1,1.75a2.06,2.06,0,0,1-1.83,1.13c-3.83,0-7.65,0-11.48,0Z"/><path class="cls-3" d="M50,35a16.63,16.63,0,0,1,6.41-6.45,16,16,0,0,1,5.2-1.82A15.42,15.42,0,0,1,71.16,28a16.68,16.68,0,0,1,8.4,9,18.17,18.17,0,0,1,.51,11.56c-.44,1.74-1.13,3.42-1.7,5.14a.72.72,0,0,1-.68.49c-4.46,0-8.93,0-13.39,0a.63.63,0,0,1-.69-.49C62,49.32,60.46,45,58.88,40.59a1.69,1.69,0,0,0-3.23-.12Q51.44,49.4,47.2,58.3c-.06.12-.15.22-.25.38l-3.79-6.75c-.58-1-1.17-2.08-1.74-3.13a1.68,1.68,0,0,0-1.54-1,1.81,1.81,0,0,0-1.61,1.07c-.89,1.65-1.81,3.29-2.71,4.94a.81.81,0,0,1-.71.42q-6.23,0-12.44,0a.9.9,0,0,1-.82-.53,29.22,29.22,0,0,1-2.19-7.81,16.91,16.91,0,0,1,3.83-13.5,16.34,16.34,0,0,1,10.42-5.79,16.15,16.15,0,0,1,12.9,4.05,15.86,15.86,0,0,1,3.15,3.86C49.79,34.6,49.87,34.75,50,35Z"/><path class="cls-3" d="M24.83,59.12h.75c3.83,0,7.65,0,11.48,0A2.06,2.06,0,0,0,38.89,58c.29-.57.63-1.13,1-1.75.74,1.31,1.46,2.58,2.17,3.86,1.23,2.19,2.46,4.37,3.67,6.57a1.64,1.64,0,0,0,1.54.94,1.67,1.67,0,0,0,1.54-1.05q3.41-7.23,6.85-14.45l1.17-2.45c.08.17.15.28.19.39,1,2.59,1.9,5.19,2.84,7.78a1.63,1.63,0,0,0,1.84,1.28H75.2c-.6.76-1.11,1.43-1.64,2.08A86.57,86.57,0,0,1,60.63,73.66c-3.05,2.42-6.18,4.73-9.28,7.08a2.24,2.24,0,0,1-2.63.05,156.69,156.69,0,0,1-12.5-9.73A78.56,78.56,0,0,1,25,59.42C25,59.36,24.94,59.29,24.83,59.12Z"/></g></g></svg>